REM MD5 9facdb7d5a8fc6323322ed46a821b659
FILE "Euro Demo 52 (Europe).bin" BINARY
  TRACK 01 MODE2/2352
    INDEX 01 00:00:00
  TRACK 02 AUDIO
    INDEX 00 45:53:45
    INDEX 01 45:55:45
  TRACK 03 AUDIO
    INDEX 00 50:41:42
    INDEX 01 50:43:42
  TRACK 04 AUDIO
    INDEX 00 51:22:22
    INDEX 01 51:24:22
  TRACK 05 AUDIO
    INDEX 00 52:34:38
    INDEX 01 52:36:38
  TRACK 06 AUDIO
    INDEX 00 52:41:05
    INDEX 01 52:43:05
REM LEADOUT 55:44:37
